<svg width="15834" height="13310" viewBox="0 0 15834 13310" fill="none" xmlns="http://www.w3.org/2000/svg">
<path d="M2519.04 5755.68L4138.43 8003.99V11691.2H8816.66L8186.9 12410.7V13310H2519.04V5755.68Z" fill="#FF9100"/>
<path d="M2519.04 44.9662L4138.43 44.9648V4586.55L2519.04 2293.28V44.9662Z" fill="#FF9100"/>
<path d="M9986.21 44.9658H15789L12640.2 1708.7H9986.21V44.9658Z" fill="#423C34"/>
<path d="M8636.73 44.9658H10121.2V5440.91L8636.73 3507.36V44.9658Z" fill="#423C34"/>
<path d="M8546.76 12415.5L9221.51 11691.2L9986.22 10567.1V13310H8546.76V12415.5Z" fill="#423C34"/>
<path d="M8636.73 3507.37L10121.2 5395.95V7284.53L8636.73 9397.94V3507.37Z" fill="#423C34"/>
<path d="M9986.21 5036.22H11695.6L10750.9 6430.16H9986.21V5036.22Z" fill="#423C34"/>
<path d="M14394.5 6430.12L12730.2 6430.16L13315 5620.78L14394.5 6430.12Z" fill="#423C34"/>
<path d="M6747.44 11421.4L0 1708.72H1844.3L8591.74 11421.4H6747.44Z" fill="white"/>
<path d="M8996.68 11421.4L13999.4 4150.16H12631.4L7557.17 11421.4H8996.68Z" fill="white"/>
</svg>
